<svg width="58" height="58" viewBox="0 0 58 58" fill="none" xmlns="http://www.w3.org/2000/svg">
<path d="M52.2793 16.0633C51.5201 14.3054 50.4254 12.7124 49.0564 11.3735C47.6865 10.0306 46.0713 8.96337 44.2986 8.22992C42.4605 7.46637 40.489 7.07554 38.4986 7.08012C35.7063 7.08012 32.9818 7.84477 30.6143 9.2891C30.0479 9.63461 29.5098 10.0141 29 10.4276C28.4902 10.0141 27.9521 9.63461 27.3857 9.2891C25.0182 7.84477 22.2937 7.08012 19.5014 7.08012C17.4906 7.08012 15.5422 7.46527 13.7014 8.22992C11.9229 8.96625 10.3199 10.0254 8.94355 11.3735C7.57283 12.7109 6.47786 14.3043 5.7207 16.0633C4.9334 17.8928 4.53125 19.8356 4.53125 21.835C4.53125 23.7211 4.91641 25.6866 5.68105 27.686C6.32109 29.3569 7.23867 31.0901 8.41113 32.8403C10.2689 35.61 12.8234 38.4987 15.9953 41.427C21.2516 46.2811 26.4568 49.6342 26.6777 49.7702L28.0201 50.6311C28.6148 51.0106 29.3795 51.0106 29.9742 50.6311L31.3166 49.7702C31.5375 49.6286 36.7371 46.2811 41.999 41.427C45.1709 38.4987 47.7254 35.61 49.5832 32.8403C50.7557 31.0901 51.6789 29.3569 52.3133 27.686C53.0779 25.6866 53.4631 23.7211 53.4631 21.835C53.4688 19.8356 53.0666 17.8928 52.2793 16.0633Z" fill="white"/>
</svg>
