<svg width="249" height="249" viewBox="0 0 249 249" fill="none" xmlns="http://www.w3.org/2000/svg">
<path d="M224.44 68.9615C221.181 61.4146 216.481 54.5756 210.604 48.8275C204.723 43.0622 197.789 38.4807 190.179 35.3319C182.287 32.0539 173.824 30.376 165.279 30.3957C153.291 30.3957 141.594 33.6784 131.43 39.8791C128.999 41.3624 126.688 42.9916 124.5 44.7667C122.312 42.9916 120.001 41.3624 117.57 39.8791C107.406 33.6784 95.7094 30.3957 83.7214 30.3957C75.0891 30.3957 66.7242 32.0492 58.8214 35.3319C51.186 38.493 44.3045 43.0402 38.3956 48.8275C32.511 54.5692 27.8101 61.4097 24.5596 68.9615C21.1796 76.8157 19.4531 85.1562 19.4531 93.7399C19.4531 101.837 21.1066 110.275 24.3894 118.859C27.1371 126.032 31.0764 133.473 36.1099 140.987C44.0856 152.877 55.0523 165.279 68.6695 177.85C91.2352 198.69 113.582 213.085 114.53 213.668L120.293 217.365C122.846 218.994 126.129 218.994 128.682 217.365L134.445 213.668C135.394 213.061 157.716 198.69 180.306 177.85C193.923 165.279 204.89 152.877 212.866 140.987C217.899 133.473 221.863 126.032 224.586 118.859C227.869 110.275 229.523 101.837 229.523 93.7399C229.547 85.1562 227.82 76.8157 224.44 68.9615Z" fill="#790C23"/>
</svg>
