<svg width="113" height="113" viewBox="0 0 113 113" fill="none" xmlns="http://www.w3.org/2000/svg">
<g clip-path="url(#clip0_9_2)">
<path fill-rule="evenodd" clip-rule="evenodd" d="M20.1563 111.969C19.6624 112.464 19.0326 112.801 18.3468 112.938C17.661 113.075 16.95 113.005 16.304 112.737C15.6579 112.469 15.106 112.016 14.718 111.434C14.3301 110.852 14.1237 110.168 14.1249 109.469V98.875H3.53116C2.83183 98.8763 2.14787 98.6698 1.566 98.2819C0.984124 97.894 0.530539 97.342 0.262747 96.696C-0.00504581 96.0499 -0.0749865 95.3389 0.0617914 94.6531C0.198569 93.9673 0.535906 93.3375 1.03104 92.8436L11.6248 82.2499C11.9533 81.9222 12.3432 81.6624 12.7722 81.4855C13.2012 81.3086 13.6609 81.2179 14.1249 81.2188H26.788L30.5311 77.4756C25.0859 71.8115 21.1521 66.3169 18.4966 61.0906C12.8607 49.9672 13.0232 39.9314 16.9923 32.1909C24.196 18.1153 43.6462 12.7761 56.4999 22.8331C65.328 15.9118 77.2919 16.2791 86.2472 21.7596L93.8747 14.125L85.7881 6.03137C85.2934 5.53792 84.9562 4.9088 84.8192 4.22363C84.6822 3.53846 84.7515 2.82805 85.0185 2.18231C85.2854 1.53657 85.7379 0.984526 86.3186 0.596056C86.8994 0.207585 87.5824 0.000148418 88.2812 0L109.469 0C110.405 0 111.303 0.372041 111.966 1.03428C112.628 1.69652 113 2.5947 113 3.53125V24.7188C113.001 25.4181 112.795 26.102 112.407 26.6839C112.019 27.2658 111.467 27.7194 110.821 27.9872C110.175 28.255 109.464 28.3249 108.778 28.1881C108.092 28.0513 107.462 27.714 106.969 27.2189L98.8749 19.1182L91.77 26.2231C93.4368 27.9746 94.8775 29.9733 96.0075 32.1909C99.9767 39.9314 100.139 49.9672 94.5032 61.0906C88.9027 72.1293 77.5885 84.3121 58.4492 96.9681L56.4999 98.2535L54.5507 96.9681C47.8628 92.6113 41.5228 87.7424 35.5878 82.4053L31.7812 86.219V98.875C31.782 99.339 31.6913 99.7987 31.5144 100.228C31.3375 100.657 31.0777 101.047 30.75 101.375L20.1563 111.969ZM40.5881 77.405C45.5974 81.8907 50.9143 86.0206 56.4999 89.7644C73.8454 77.9983 83.5281 67.1149 88.2035 57.8984C92.9989 48.4346 92.4904 40.8071 89.7219 35.4043C83.9518 24.1396 67.92 20.8979 59.0283 30.0297L56.4999 32.6287L53.9715 30.0297C45.0798 20.8979 29.0409 24.1396 23.2779 35.4043C20.5094 40.8142 20.0009 48.4346 24.7963 57.8984C27.0775 62.3901 30.5523 67.2915 35.5243 72.4824L48.7029 59.2967C49.366 58.6337 50.2653 58.2612 51.203 58.2612C52.1408 58.2612 53.0401 58.6337 53.7032 59.2967C54.3662 59.9598 54.7387 60.8591 54.7387 61.7969C54.7387 62.7346 54.3662 63.6339 53.7032 64.297L40.5881 77.405V77.405Z" fill="#DDC0C5"/>
</g>
<defs>
<clipPath id="clip0_9_2">
<rect width="113" height="113" fill="white"/>
</clipPath>
</defs>
</svg>
