<svg width="48" height="48" viewBox="0 0 48 48" fill="none" xmlns="http://www.w3.org/2000/svg">
<path d="M6 0C4.4087 0 2.88258 0.632141 1.75736 1.75736C0.632141 2.88258 0 4.4087 0 6L0 30C0 31.5913 0.632141 33.1174 1.75736 34.2426C2.88258 35.3679 4.4087 36 6 36H13.5C13.9657 36 14.4251 36.1084 14.8416 36.3167C15.2582 36.525 15.6206 36.8274 15.9 37.2L21.6 44.799C21.8794 45.1716 22.2418 45.474 22.6584 45.6823C23.0749 45.8906 23.5343 45.999 24 45.999C24.4657 45.999 24.9251 45.8906 25.3416 45.6823C25.7582 45.474 26.1206 45.1716 26.4 44.799L32.1 37.2C32.3794 36.8274 32.7418 36.525 33.1584 36.3167C33.5749 36.1084 34.0343 36 34.5 36H42C43.5913 36 45.1174 35.3679 46.2426 34.2426C47.3679 33.1174 48 31.5913 48 30V6C48 4.4087 47.3679 2.88258 46.2426 1.75736C45.1174 0.632141 43.5913 0 42 0L6 0ZM24 11.979C28.992 6.846 41.475 15.828 24 27.375C6.525 15.825 19.008 6.846 24 11.979V11.979Z" fill="#790C23"/>
</svg>
