<svg width="407" height="407" viewBox="0 0 407 407" fill="none" xmlns="http://www.w3.org/2000/svg">
<g clip-path="url(#clip0_6_100)">
<path fill-rule="evenodd" clip-rule="evenodd" d="M70.1504 67.1312C72.8082 66.419 75.6401 66.7918 78.0231 68.1677C80.4061 69.5435 82.1449 71.8096 82.8571 74.4674L85.5423 84.4889L245.886 41.5249L243.201 31.5035C242.489 28.8456 242.861 26.0137 244.237 23.6307C245.613 21.2477 247.879 19.5089 250.537 18.7967C253.195 18.0846 256.027 18.4574 258.41 19.8332C260.793 21.209 262.532 23.4751 263.244 26.133L265.929 36.1544L285.972 30.7839C296.603 27.9353 307.931 29.4266 317.463 34.9298C326.995 40.4331 333.95 49.4974 336.799 60.1289L342.169 80.1718L21.482 166.1L16.1115 146.057C13.2628 135.425 14.7541 124.098 20.2574 114.566C25.7606 105.034 34.825 98.0786 45.4564 95.2299L65.4994 89.8594L62.8141 79.8379C62.102 77.1801 62.4748 74.3481 63.8506 71.9652C65.2264 69.5822 67.4925 67.8434 70.1504 67.1312V67.1312ZM347.54 100.215L395.874 280.601C398.723 291.233 397.232 302.561 391.728 312.092C386.225 321.624 377.161 328.58 366.529 331.428L126.014 395.874C115.382 398.723 104.055 397.232 94.5229 391.728C84.991 386.225 78.0356 377.161 75.1869 366.529L26.8525 186.143L347.54 100.215ZM205.955 213.189C230.118 169.959 329.596 207.621 233.517 316.049C96.09 270.167 163.415 187.832 205.955 213.189Z" fill="#790C23"/>
</g>
<defs>
<clipPath id="clip0_6_100">
<rect width="332" height="332" fill="white" transform="translate(0 85.9279) rotate(-15)"/>
</clipPath>
</defs>
</svg>
