<svg width="414" height="414" viewBox="0 0 414 414" fill="none" xmlns="http://www.w3.org/2000/svg">
<g clip-path="url(#clip0_6_103)">
<path fill-rule="evenodd" clip-rule="evenodd" d="M128.291 10.9351C117.468 8.03493 105.935 9.5532 96.2311 15.1559C86.5269 20.7586 79.4459 29.9868 76.5457 40.8104L32.8053 204.052C29.9051 214.875 31.4234 226.408 37.0261 236.112C42.6288 245.816 51.857 252.897 62.6806 255.797L113.694 269.466C116.861 270.315 119.788 271.89 122.242 274.066C124.696 276.241 126.609 278.959 127.831 282.002L152.751 344.077C153.973 347.12 155.886 349.838 158.34 352.014C160.794 354.19 163.721 355.764 166.888 356.613C170.056 357.462 173.378 357.561 176.591 356.904C179.804 356.247 182.82 354.85 185.4 352.825L238.019 311.527C240.598 309.502 243.614 308.106 246.827 307.448C250.04 306.791 253.362 306.89 256.53 307.739L307.543 321.408C318.366 324.308 329.899 322.79 339.603 317.187C349.307 311.584 356.388 302.356 359.288 291.533L403.029 128.291C405.929 117.468 404.411 105.935 398.808 96.2311C393.205 86.5269 383.977 79.4459 373.153 76.5457L128.291 10.9351ZM228.89 125.218C272.2 99.4031 340.736 183.247 200.831 229.938C103.021 119.529 204.291 81.207 228.89 125.218Z" fill="#790C23"/>
</g>
<defs>
<clipPath id="clip0_6_103">
<rect width="338" height="338" fill="white" transform="translate(87.4808) rotate(15)"/>
</clipPath>
</defs>
</svg>
