<svg width="1440" height="860" viewBox="0 0 1440 860" fill="none" xmlns="http://www.w3.org/2000/svg">
<g clip-path="url(#clip0_16_14)">
<rect width="1440" height="860" fill="white"/>
<path d="M140.481 45.117C153.974 33.4818 171.183 27.0559 189 27C225.315 27 255.461 54 258.741 88.8165C280.233 91.854 297 109.849 297 131.935C297 156.182 276.777 175.5 252.275 175.5H132.043C104.058 175.5 81 153.441 81 125.793C81 101.993 98.091 82.2825 120.717 77.2875C122.647 65.637 130.14 54.027 140.481 45.117Z" fill="#FFF4F6"/>
<path d="M396.481 281.117C409.974 269.482 427.183 263.056 445 263C481.315 263 511.461 290 514.741 324.817C536.233 327.854 553 345.849 553 367.935C553 392.182 532.777 411.5 508.275 411.5H388.043C360.058 411.5 337 389.441 337 361.793C337 337.993 354.091 318.282 376.717 313.287C378.647 301.637 386.14 290.027 396.481 281.117Z" fill="#FFF4F6"/>
<path d="M888.481 458.117C901.974 446.482 919.183 440.056 937 440C973.315 440 1003.46 467 1006.74 501.817C1028.23 504.854 1045 522.849 1045 544.935C1045 569.182 1024.78 588.5 1000.27 588.5H880.043C852.058 588.5 829 566.441 829 538.793C829 514.993 846.091 495.282 868.717 490.287C870.647 478.637 878.14 467.027 888.481 458.117Z" fill="#FFF4F6"/>
<path d="M1380.48 635.117C1393.97 623.482 1411.18 617.056 1429 617C1465.32 617 1495.46 644 1498.74 678.817C1520.23 681.854 1537 699.849 1537 721.935C1537 746.182 1516.78 765.5 1492.27 765.5H1372.04C1344.06 765.5 1321 743.441 1321 715.793C1321 691.993 1338.09 672.282 1360.72 667.287C1362.65 655.637 1370.14 644.027 1380.48 635.117Z" fill="#FFF4F6"/>
<path d="M818.481 797.117C831.974 785.482 849.183 779.056 867 779C903.315 779 933.461 806 936.741 840.817C958.233 843.854 975 861.849 975 883.935C975 908.182 954.777 927.5 930.275 927.5H810.043C782.058 927.5 759 905.441 759 877.793C759 853.993 776.091 834.282 798.717 829.287C800.647 817.637 808.14 806.027 818.481 797.117Z" fill="#FFF4F6"/>
<path d="M19.481 703.117C32.974 691.482 50.1833 685.056 68 685C104.315 685 134.461 712 137.741 746.817C159.233 749.854 176 767.849 176 789.935C176 814.182 155.777 833.5 131.275 833.5H11.0435C-16.942 833.5 -40 811.441 -40 783.793C-40 759.993 -22.909 740.282 -0.283001 735.287C1.6475 723.637 9.14 712.027 19.481 703.117Z" fill="#FFF4F6"/>
<path d="M795.481 146.117C808.974 134.482 826.183 128.056 844 128C880.315 128 910.461 155 913.741 189.817C935.233 192.854 952 210.849 952 232.935C952 257.182 931.777 276.5 907.275 276.5H787.043C759.058 276.5 736 254.441 736 226.793C736 202.993 753.091 183.282 775.717 178.287C777.647 166.637 785.14 155.027 795.481 146.117Z" fill="#FFF4F6"/>
<path d="M1194.48 11.117C1207.97 -0.518176 1225.18 -6.94413 1243 -7C1279.32 -7 1309.46 20 1312.74 54.8165C1334.23 57.854 1351 75.8495 1351 97.9355C1351 122.181 1330.78 141.5 1306.27 141.5H1186.04C1158.06 141.5 1135 119.441 1135 91.793C1135 67.9925 1152.09 48.2825 1174.72 43.2875C1176.65 31.637 1184.14 20.027 1194.48 11.117V11.117Z" fill="#FFF4F6"/>
</g>
<defs>
<clipPath id="clip0_16_14">
<rect width="1440" height="860" fill="white"/>
</clipPath>
</defs>
</svg>
