<svg width="320" height="256" viewBox="0 0 320 256" fill="none" xmlns="http://www.w3.org/2000/svg">
<path d="M314.44 105.325L247.195 24.635C244.943 21.9328 242.124 19.7587 238.938 18.2666C235.753 16.7744 232.278 16.0006 228.76 16H16C7.165 16 0 23.165 0 32V176C0 184.835 7.165 192 16 192H32C32 218.51 53.49 240 80 240C106.51 240 128 218.51 128 192H192C192 218.51 213.49 240 240 240C266.51 240 288 218.51 288 192H304C312.835 192 320 184.835 320 176V120.69C320 115.075 318.03 109.64 314.44 105.325ZM32 96V48H80V96H32ZM80 216C66.745 216 56 205.255 56 192C56 178.745 66.745 168 80 168C93.255 168 104 178.745 104 192C104 205.255 93.255 216 80 216ZM160 96H112V48H160V96ZM240 216C226.745 216 216 205.255 216 192C216 178.745 226.745 168 240 168C253.255 168 264 178.745 264 192C264 205.255 253.255 216 240 216ZM192 96V48H225.01L265.01 96H192Z" fill="#DDC0C5"/>
</svg>
