<svg width="312" height="312" viewBox="0 0 312 312" fill="none" xmlns="http://www.w3.org/2000/svg">
<g clip-path="url(#clip0_9_5)">
<path d="M72.8566 276.308C75.1293 284.79 83.8178 289.806 92.2994 287.534L168.97 266.99L148.426 190.32L56.4216 214.972L72.8566 276.308ZM199.638 258.772L276.308 238.229C284.79 235.956 289.806 227.268 287.534 218.786L271.099 157.45L179.094 182.102L199.638 258.772ZM250.555 80.7792L230.381 86.1848C231.798 79.5905 231.947 72.6686 230.085 65.7204C223.858 42.4797 199.858 28.6234 176.617 34.8508C156.683 40.1921 146.527 53.8528 136.03 80.8045C113.463 62.7123 97.8383 55.9595 77.904 61.3008C54.6633 67.5282 40.807 91.5279 47.0344 114.769C48.8961 121.717 52.4376 127.65 57.0101 132.639L35.8778 138.302C27.3962 140.574 22.3799 149.263 24.6525 157.745L34.9244 196.08C36.0543 200.297 40.4289 202.822 44.6458 201.692L274.657 140.061C278.874 138.931 281.399 134.557 280.27 130.34L269.998 92.0045C267.725 83.5229 259.037 78.5066 250.555 80.7792ZM94.2911 122.65C83.701 125.488 72.8252 119.208 69.9875 108.618C67.1499 98.0282 73.4291 87.1524 84.0192 84.3148C93.5551 81.7597 101.023 81.4535 135.549 111.595L94.2911 122.65ZM193.052 96.187L151.794 107.242C166.602 63.9845 173.005 60.4712 182.78 57.8519C193.37 55.0143 204.246 61.2934 207.084 71.8835C209.921 82.4736 203.642 93.3494 193.052 96.187Z" fill="white"/>
</g>
<defs>
<clipPath id="clip0_9_5">
<rect width="254" height="254" fill="white" transform="translate(0 65.7402) rotate(-15)"/>
</clipPath>
</defs>
</svg>
