<svg width="526" height="398" viewBox="0 0 526 398" fill="none" xmlns="http://www.w3.org/2000/svg">
<g clip-path="url(#clip0_17_97)">
<path d="M545.89 313.908L557.297 272.103L513.402 260.126C514.316 244.43 511.448 231.07 506.053 220.39L575.761 180.569L554.121 142.997L475.842 187.891C461.743 178.654 448.993 175.175 448.993 175.175L460.4 133.37L418.595 121.963L406.96 164.604C393.449 162.265 377.563 160.4 359.966 159.866L356.667 97.8782L313.359 100.21L316.829 161.571C304.8 163.679 292.448 166.148 280.172 169.985L260.511 111.168L219.482 124.902L240.225 187.158C225.326 195.67 211.11 206.614 197.731 220.256L163.282 189.296L134.261 221.578L170.362 253.888L173.156 251.057C161.049 269.089 150.29 290.409 141.755 315.929L99.3228 304.351L87.9158 346.156L131.184 357.962C128.731 374.361 126.922 397.449 130.853 420.082L90.412 443.185L112.052 480.756L147.647 460.599C156.14 471.451 168.091 480.326 184.813 484.889C195.265 487.741 204.329 489.091 213.089 489.909L220.438 527.175L263.196 518.629L256.587 486.057C277.073 479.295 290.795 466.869 298.93 455.164L336.134 480.138L360.348 444.074L317.025 415.184C327.328 388.125 342.494 374.521 356.671 367.834L364.876 409.375L407.633 400.829L399.961 363.925C415.458 366.596 431.376 365.384 446.29 360.396L485.944 406.027L518.613 377.66L482.342 336.096C489.887 327.374 496.958 316.277 502.831 302.159L545.89 313.908ZM177.229 348.067C193.998 286.614 223.971 244.26 266.388 222.146C340.751 183.37 433.405 215.839 434.032 216.01L436.959 216.809C456.398 222.113 477.167 236.539 467.984 270.192C452.984 325.165 421.154 324.116 409.068 321.492C367.263 310.085 295.43 326.419 270.335 418.39C268.453 425.288 255.792 459.339 196.22 443.084C156.715 432.305 177.058 348.694 177.229 348.067ZM423.327 269.236C425.596 260.92 424.469 252.044 420.193 244.56C415.918 237.075 408.844 231.596 400.529 229.327C392.213 227.058 383.337 228.185 375.852 232.461C368.368 236.736 362.889 243.81 360.62 252.125C358.351 260.441 359.478 269.317 363.753 276.802C368.029 284.286 375.103 289.765 383.418 292.034C391.734 294.303 400.61 293.176 408.094 288.901C415.579 284.625 421.058 277.552 423.327 269.236ZM325.458 298.678C326.971 293.135 326.219 287.217 323.369 282.227C320.519 277.238 315.803 273.585 310.259 272.072C304.716 270.56 298.798 271.311 293.809 274.161C288.819 277.012 285.166 281.728 283.653 287.271C282.141 292.815 282.892 298.732 285.743 303.722C288.593 308.712 293.309 312.365 298.852 313.877C304.396 315.39 310.314 314.638 315.303 311.788C320.293 308.938 323.946 304.222 325.458 298.678ZM257.988 381.332C260.257 373.017 259.129 364.141 254.854 356.656C250.578 349.172 243.505 343.692 235.189 341.423C226.874 339.154 217.997 340.282 210.513 344.557C203.028 348.833 197.549 355.906 195.28 364.222C193.011 372.537 194.138 381.414 198.414 388.898C202.689 396.383 209.763 401.862 218.079 404.131C226.394 406.4 235.27 405.273 242.755 400.997C250.239 396.722 255.719 389.648 257.988 381.332Z" fill="#FFF4F6"/>
</g>
<defs>
<clipPath id="clip0_17_97">
<rect width="520" height="520" fill="white" transform="translate(639.027 137.193) rotate(105.262)"/>
</clipPath>
</defs>
</svg>
