<svg width="311" height="311" viewBox="0 0 311 311" fill="none" xmlns="http://www.w3.org/2000/svg">
<g clip-path="url(#clip0_17_80)">
<path d="M186.66 39.4127L141.655 53.2116L108.636 44.3641L103.158 64.8095L78.8721 72.4363C71.9842 74.4256 66.2717 79.7976 64.2721 87.2602L36.8804 189.487C35.4275 194.91 36.1881 200.687 38.995 205.549C41.8018 210.411 46.425 213.958 51.8475 215.411L215.411 259.238C226.758 262.278 238.294 255.618 241.335 244.271L268.726 142.044C270.726 134.581 268.465 127.072 263.494 121.906L246.276 103.158L251.754 82.7125L218.735 73.865L186.66 39.4127ZM123.603 70.2879L225.83 97.6796L212.463 147.566L152.803 165.765L110.236 120.175L123.603 70.2879ZM131.087 83.2498L126.978 98.5838L208.76 120.497L212.868 105.163L131.087 83.2498ZM96.6385 89.1396L93.2146 101.918L84.7175 92.7385L96.6385 89.1396ZM239.757 127.488L248.281 136.565L236.333 140.266L239.757 127.488ZM124.239 108.807L120.13 124.141L201.912 146.054L206.021 130.72L124.239 108.807Z" fill="white"/>
</g>
<defs>
<clipPath id="clip0_17_80">
<rect width="254" height="254" fill="white" transform="translate(65.74) rotate(15)"/>
</clipPath>
</defs>
</svg>
