<svg width="509" height="509" viewBox="0 0 509 509" fill="none" xmlns="http://www.w3.org/2000/svg">
<path d="M154.489 86.689C152.908 82.7581 152.94 78.3623 154.577 74.4544C156.215 70.5465 159.327 67.4415 163.238 65.8121C165.167 65.0055 167.239 64.5923 169.33 64.5967C171.421 64.6012 173.491 65.0232 175.417 65.8381C177.343 66.6529 179.087 67.8442 180.546 69.342C182.006 70.8398 183.151 72.614 183.916 74.5605L199.226 111.145C200.819 115.051 200.816 119.427 199.217 123.33C197.618 127.234 194.552 130.355 190.676 132.022C188.714 132.801 186.624 133.206 184.513 133.215C181.384 133.174 178.333 132.234 175.724 130.506C173.115 128.779 171.058 126.337 169.799 123.472L154.489 86.689ZM423.504 232.231C425.615 232.222 427.706 231.817 429.668 231.038L466.252 215.729C468.198 214.964 469.973 213.818 471.47 212.359C472.968 210.899 474.16 209.155 474.974 207.229C475.789 205.303 476.211 203.234 476.216 201.142C476.22 199.051 475.807 196.98 475 195.05C473.371 191.139 470.266 188.027 466.358 186.39C462.45 184.752 458.054 184.721 454.123 186.302L417.34 201.612C413.923 203.015 411.1 205.565 409.358 208.822C407.615 212.08 407.06 215.843 407.79 219.464C408.519 223.086 410.486 226.341 413.353 228.671C416.221 231.001 419.81 232.259 423.504 232.231ZM318.324 132.022C320.286 132.801 322.376 133.206 324.487 133.215C327.616 133.174 330.667 132.234 333.276 130.506C335.885 128.779 337.942 126.337 339.201 123.472L354.511 86.689C356.092 82.7581 356.06 78.3623 354.423 74.4544C352.785 70.5465 349.673 67.4415 345.762 65.8121C343.833 65.0055 341.761 64.5923 339.67 64.5967C337.579 64.6012 335.509 65.0232 333.583 65.8381C331.657 66.6529 329.913 67.8442 328.454 69.342C326.994 70.8398 325.849 72.614 325.084 74.5605L309.774 111.145C308.181 115.051 308.184 119.427 309.783 123.33C311.382 127.234 314.448 130.355 318.324 132.022ZM42.748 215.729L79.3324 231.038C81.2944 231.817 83.3851 232.222 85.4961 232.231C89.1905 232.259 92.7794 231.001 95.6469 228.671C98.5143 226.341 100.481 223.086 101.21 219.464C101.94 215.843 101.385 212.08 99.6424 208.822C97.8996 205.565 95.0773 203.015 91.6598 201.612L54.8766 186.302C50.9456 184.721 46.5498 184.752 42.6419 186.39C38.7341 188.027 35.629 191.139 33.9996 195.05C33.193 196.98 32.7798 199.051 32.7842 201.142C32.7887 203.234 33.2107 205.303 34.0256 207.229C34.8405 209.155 36.0317 210.899 37.5295 212.359C39.0274 213.818 40.8015 214.964 42.748 215.729ZM477.188 302.219H388.709C389.343 296.94 389.675 291.629 389.703 286.312C389.703 250.454 375.459 216.065 350.103 190.709C324.748 165.354 290.358 151.109 254.5 151.109C218.642 151.109 184.252 165.354 158.897 190.709C133.541 216.065 119.297 250.454 119.297 286.312C119.325 291.629 119.657 296.94 120.291 302.219H31.8125C27.5939 302.219 23.5481 303.895 20.5651 306.878C17.5821 309.861 15.9063 313.906 15.9062 318.125C15.9063 322.344 17.5821 326.389 20.5651 329.372C23.5481 332.355 27.5939 334.031 31.8125 334.031H477.188C481.406 334.031 485.452 332.355 488.435 329.372C491.418 326.389 493.094 322.344 493.094 318.125C493.094 313.906 491.418 309.861 488.435 306.878C485.452 303.895 481.406 302.219 477.188 302.219ZM413.562 381.75H95.4375C91.2189 381.75 87.1731 383.426 84.1901 386.409C81.2071 389.392 79.5312 393.438 79.5312 397.656C79.5312 401.875 81.2071 405.921 84.1901 408.904C87.1731 411.887 91.2189 413.562 95.4375 413.562H413.562C417.781 413.562 421.827 411.887 424.81 408.904C427.793 405.921 429.469 401.875 429.469 397.656C429.469 393.438 427.793 389.392 424.81 386.409C421.827 383.426 417.781 381.75 413.562 381.75Z" fill="#790C23"/>
</svg>
