<svg width="361" height="361" viewBox="0 0 361 361" fill="none" xmlns="http://www.w3.org/2000/svg">
<path d="M255.708 285.792H285.792V165.458H195.542V285.792H225.625V195.542H255.708V285.792ZM45.125 285.792V60.1667C45.125 56.1774 46.7097 52.3515 49.5306 49.5306C52.3515 46.7097 56.1774 45.125 60.1667 45.125H270.75C274.739 45.125 278.565 46.7097 281.386 49.5306C284.207 52.3515 285.792 56.1774 285.792 60.1667V135.375H315.875V285.792H330.917V315.875H30.0833V285.792H45.125ZM105.292 165.458V195.542H135.375V165.458H105.292ZM105.292 225.625V255.708H135.375V225.625H105.292ZM105.292 105.292V135.375H135.375V105.292H105.292Z" fill="#DDC0C5"/>
</svg>
